<svg xmlns="http://www.w3.org/2000/svg" viewBox="0 0 64 64">
  <defs>
    <linearGradient id="bg" x1="0" y1="0" x2="1" y2="1">
      <stop offset="0" stop-color="#2d1054"/>
      <stop offset="1" stop-color="#1a0a2e"/>
    </linearGradient>
  </defs>

  <!-- Background -->
  <rect width="64" height="64" rx="14" fill="url(#bg)"/>

  <!-- T-shirt (white) -->
  <path d="M26 22 L11 27 L11 35 L19 35 L19 51 L45 51 L45 35 L53 35 L53 27 L38 22
           Q34 17 32 17 Q30 17 26 22Z"
        fill="white" opacity="0.93"/>

  <!-- ✨ Sparkle (top-right, lavender) -->
  <path d="M50 8 L51.4 12.6 L56 13 L51.4 13.4 L50 18 L48.6 13.4 L44 13 L48.6 12.6Z"
        fill="#a78bfa"/>
  <line x1="46.5" y1="9.5"  x2="48.6" y2="12.6" stroke="#c4b5fd" stroke-width="1.3" stroke-linecap="round"/>
  <line x1="53.5" y1="9.5"  x2="51.4" y2="12.6" stroke="#c4b5fd" stroke-width="1.3" stroke-linecap="round"/>
  <line x1="46.5" y1="16.5" x2="48.6" y2="13.4" stroke="#c4b5fd" stroke-width="1.3" stroke-linecap="round"/>
  <line x1="53.5" y1="16.5" x2="51.4" y2="13.4" stroke="#c4b5fd" stroke-width="1.3" stroke-linecap="round"/>
</svg>
